<?xml version="1.0" encoding="utf-8"?>
<!-- Generator: Adobe Illustrator 25.2.1, SVG Export Plug-In . SVG Version: 6.00 Build 0)  -->
<svg version="1.1" id="レイヤー_1" xmlns="http://www.w3.org/2000/svg" xmlns:xlink="http://www.w3.org/1999/xlink" x="0px"
	 y="0px" viewBox="0 0 150 30" style="enable-background:new 0 0 150 30;" xml:space="preserve">
<path d="M28.11,5.1l-6.85,12.17v9.15h-2.32v-9.09L12.45,5.1h2.66l2.96,5.96c0.81,1.59,1.48,2.96,2.13,4.5h0.08
	c0.59-1.43,1.31-2.88,2.15-4.53l3.08-5.93H28.11z"/>
<path d="M21.24,17.85c0,6.4-3.3,8.89-7.55,8.89c-3.97,0-7.13-2.32-7.13-8.75V5.13h2.32v12.89c0,4.84,2.13,6.8,4.92,6.8
	c3.08,0,5.12-2.07,5.12-6.8V5.13h2.32V17.85z"/>
<path d="M26,5.1h2.32v21.31H26V5.1z"/>
<path d="M39.63,5.38c1.23-0.22,2.85-0.42,4.84-0.42c6.88,0,7.44,4.42,7.44,6.1c0,5.01-4,6.8-7.78,6.8c-0.81,0-1.54-0.03-2.18-0.2
	v8.75h-2.32V5.38z M41.95,15.73c0.59,0.17,1.34,0.22,2.24,0.22c3.36,0,5.4-1.68,5.4-4.73c0-3.05-2.18-4.39-5.09-4.39
	c-1.18,0-2.04,0.11-2.55,0.22V15.73z"/>
<path d="M68.45,18.66c0,5.68-3.75,8.08-7.13,8.08c-3.92,0-6.94-2.94-6.94-7.86c0-5.2,3.24-8.08,7.13-8.08
	C65.68,10.8,68.45,13.99,68.45,18.66z M61.43,12.62c-3.3,0-4.67,3.24-4.67,6.18c0,3.38,1.87,6.12,4.61,6.12
	c2.77,0,4.7-2.74,4.7-6.18C66.07,16.03,64.75,12.62,61.43,12.62z"/>
<path d="M78.94,13.13c-0.25-0.03-0.5-0.06-0.84-0.06c-2.52,0-3.8,2.49-3.8,5.06v8.28h-2.32V15.73c0-1.62-0.03-3.1-0.11-4.56h2.04
	l0.11,2.94h0.08c0.67-1.9,2.26-3.27,4.14-3.27c0.25,0,0.45,0.06,0.7,0.08V13.13z"/>
<path d="M82.27,8.4l2.29-0.78v3.55h3.94v1.82h-3.94v8.81c0,1.93,0.59,2.99,2.07,2.99c0.7,0,1.18-0.08,1.57-0.22l0.14,1.79
	c-0.5,0.22-1.29,0.36-2.26,0.36c-3.69,0-3.8-3.36-3.8-4.98v-8.75h-2.35v-1.82h2.35V8.4z"/>
<path d="M91.82,11.17c0-1.9,0-4.39,1.68-6.1c1.01-0.98,2.32-1.37,3.53-1.37c0.98,0,1.76,0.22,2.26,0.45l-0.39,1.82
	C98.47,5.8,97.94,5.6,97.13,5.6c-2.4,0-2.99,2.24-2.99,4.7v0.87h3.69v1.82h-3.69v13.42h-2.32V12.99h-2.1v-1.82H91.82z"/>
<path d="M113.19,18.66c0,5.68-3.75,8.08-7.13,8.08c-3.91,0-6.93-2.94-6.93-7.86c0-5.2,3.24-8.08,7.13-8.08
	C110.42,10.8,113.19,13.99,113.19,18.66z M106.17,12.62c-3.3,0-4.67,3.24-4.67,6.18c0,3.38,1.87,6.12,4.62,6.12
	c2.77,0,4.7-2.74,4.7-6.18C110.81,16.03,109.5,12.62,106.17,12.62z"/>
<path d="M119.04,26.41h-2.32V4.04h2.32V26.41z"/>
<path d="M124.81,8.48c-0.89,0-1.51-0.7-1.51-1.59c0-0.87,0.64-1.57,1.54-1.57c0.92,0,1.51,0.7,1.51,1.57
	C126.34,7.87,125.7,8.48,124.81,8.48z M125.98,26.41h-2.32V11.17h2.32V26.41z"/>
<path d="M143.55,18.66c0,5.68-3.75,8.08-7.13,8.08c-3.91,0-6.93-2.94-6.93-7.86c0-5.2,3.24-8.08,7.13-8.08
	C140.78,10.8,143.55,13.99,143.55,18.66z M136.53,12.62c-3.3,0-4.67,3.24-4.67,6.18c0,3.38,1.87,6.12,4.62,6.12
	c2.77,0,4.7-2.74,4.7-6.18C141.17,16.03,139.86,12.62,136.53,12.62z"/>
</svg>
