<!--?xml version="1.0" encoding="utf-8"?-->
<!-- Generator: Adobe Illustrator 18.1.1, SVG Export Plug-In . SVG Version: 6.00 Build 0)  -->

<svg version="1.1" id="_x32_" xmlns="http://www.w3.org/2000/svg" xmlns:xlink="http://www.w3.org/1999/xlink" x="0px" y="0px" viewBox="0 0 512 512" style="width: 256px; height: 256px; opacity: 1;" xml:space="preserve">
<style type="text/css">
	.st0{fill:#4B4B4B;}
</style>
<g>
	<path class="st0" d="M496.771,326.221c-18.201-13.151-35.677-32.849-51.318-55.047c-23.496-33.29-42.933-72.082-56.371-102.445
		c-6.726-15.181-11.966-28.274-15.516-37.527c-1.773-4.634-3.126-8.297-4.027-10.813c-0.452-1.25-0.791-2.206-1.018-2.854
		c-0.221-0.633-0.324-0.926-0.324-0.926l-2.792-8.164l-8.528,1.25c-24.163,3.516-47.023,4.928-68.085,4.921
		c-40.708,0.007-74.737-5.23-98.492-10.459c-11.879-2.611-21.184-5.208-27.476-7.142c-3.141-0.956-5.531-1.758-7.109-2.309
		c-0.79-0.273-1.375-0.486-1.754-0.625l-0.404-0.148l-0.084-0.022l-10.544-4.053l-3.148,10.85l-0.102,0.368
		c-2.295,7.958-44.217,146.209-129.078,255.369L0,370.089l300.752,52.053l2.732-1.096L512,337.24L496.771,326.221z M188.911,381.724
		l-1.027-43.632c-32.874-3.464-48.446-67.485-48.446-67.485l-28.608,97.598l-73.671-12.754
		c40.098-54.797,69.927-114.14,90.077-161.198c9.139-21.36,16.285-40.116,21.537-54.783
		c30.164,125.312,96.144,218.35,127.53,257.377L188.911,381.724z M300.435,399.892c-22.08-25.361-108.575-132.462-139.442-281.767
		c22.276,6.502,68.063,17.24,127.799,17.256c19.499,0,40.538-1.25,62.63-4.075c5.149,13.938,17.087,44.617,34.456,79.364
		c11.809,23.625,26.123,49.096,42.61,72.479c12.699,17.984,26.678,34.702,41.984,48.412L300.435,399.892z" style="fill: rgb(75, 75, 75);"></path>
</g>
</svg>
