<?xml version="1.0" encoding="utf-8"?>
<!-- Generator: Adobe Illustrator 25.2.1, SVG Export Plug-In . SVG Version: 6.00 Build 0)  -->
<svg version="1.1" id="レイヤー_1" xmlns="http://www.w3.org/2000/svg" xmlns:xlink="http://www.w3.org/1999/xlink" x="0px"
	 y="0px" viewBox="0 0 600 600" style="enable-background:new 0 0 600 600;" xml:space="preserve">
<style type="text/css">
	.st0{fill:#3A2B1A;}
	.st1{fill:#725033;}
	.st2{fill:none;stroke:#9B7050;stroke-miterlimit:10;}
	.st3{fill:url(#SVGID_1_);}
	.st4{fill:url(#SVGID_2_);}
	.st5{fill:url(#SVGID_3_);}
	.st6{fill:url(#SVGID_4_);}
	.st7{fill:url(#SVGID_5_);}
	.st8{fill:url(#SVGID_6_);}
	.st9{fill:url(#SVGID_7_);}
	.st10{fill:url(#SVGID_8_);}
	.st11{fill:url(#SVGID_9_);}
	.st12{fill:url(#SVGID_10_);}
	.st13{fill:url(#SVGID_11_);}
	.st14{fill:url(#SVGID_12_);}
	.st15{fill:url(#SVGID_13_);}
	.st16{fill:url(#SVGID_14_);}
	.st17{fill:url(#SVGID_15_);}
	.st18{fill:url(#SVGID_16_);}
	.st19{fill:url(#SVGID_17_);}
	.st20{fill:url(#SVGID_18_);}
	.st21{fill:url(#SVGID_19_);}
	.st22{fill:url(#SVGID_20_);}
	.st23{fill:url(#SVGID_21_);}
	.st24{fill:url(#SVGID_22_);}
	.st25{fill:url(#SVGID_23_);}
	.st26{fill:url(#SVGID_24_);}
	.st27{fill:url(#SVGID_25_);}
	.st28{fill:url(#SVGID_26_);}
	.st29{fill:url(#SVGID_27_);}
	.st30{fill:url(#SVGID_28_);}
	.st31{fill:url(#SVGID_29_);}
	.st32{fill:url(#SVGID_30_);}
	.st33{fill:url(#SVGID_31_);}
	.st34{fill:url(#SVGID_32_);}
	.st35{fill:url(#SVGID_33_);}
	.st36{fill:url(#SVGID_34_);}
	.st37{fill:url(#SVGID_35_);}
	.st38{fill:url(#SVGID_36_);}
	.st39{fill:url(#SVGID_37_);}
	.st40{fill:url(#SVGID_38_);}
</style>
<g>
	<g>
		<path class="st0" d="M350.51,452.11c-14.93-8.82-9.11-15.75-20.39-28.93c-11.27-13.18-13.86-10.96-25.14-24.14
			c-11.27-13.18-8.69-15.39-19.96-28.57c-11.28-13.18-13.86-10.97-25.14-24.15c-11.28-13.18-13.27-11.98-19.67-28.1
			c-2.19-5.51,1.81-4.52,6.32-8.37c4.51-3.86,6.72-1.27,11.23-5.12c4.51-3.85,2.29-6.44,6.8-10.3c4.51-3.86,6.72-1.27,11.23-5.13
			c4.51-3.86,3.67-13.49,8.78-10.48c14.93,8.82,9.11,15.75,20.39,28.93c11.27,13.18,13.86,10.96,25.14,24.14
			c11.27,13.18,8.69,15.39,19.96,28.57c11.28,13.18,13.86,10.97,25.14,24.15c11.28,13.18,13.27,11.98,19.67,28.1
			c2.19,5.51-1.81,4.52-6.32,8.37c-4.51,3.86-6.72,1.27-11.23,5.12c-4.51,3.85-2.29,6.44-6.8,10.3c-4.51,3.86-8.15,0.57-11.52,5.45
			C354.72,448.13,355.62,455.13,350.51,452.11z"/>
	</g>
	<g>
		<path class="st1" d="M381.12,443.58c-1.81,1.55-4.23,2.2-6.07,3.47c-1.99,1.38-3.47,3.4-5.41,4.43c-2.19,1.16-4.71,1.21-6.72,1.88
			c-2.48,0.83-4.61,2.21-6.62,2.24c-2.73,0.04-4.57-1.49-5.93-3.08c-1.37-1.6-2.59-3.65-2.13-6.34c0.34-1.98,2.04-3.87,3.24-6.19
			c0.98-1.89,1.41-4.36,2.9-6.35c1.31-1.75,3.54-2.91,5.21-4.66c1.54-1.62,2.56-3.91,4.37-5.46c1.81-1.55,4.23-2.2,6.07-3.47
			c1.99-1.38,3.47-3.4,5.41-4.43c2.19-1.16,4.71-1.21,6.72-1.88c2.48-0.83,4.61-2.21,6.62-2.24c2.73-0.04,4.57,1.49,5.93,3.08
			c1.37,1.6,2.59,3.65,2.13,6.34c-0.34,1.98-2.04,3.87-3.24,6.19c-0.98,1.89-1.41,4.36-2.9,6.35c-1.31,1.75-3.54,2.91-5.21,4.66
			C383.95,439.74,382.93,442.04,381.12,443.58z"/>
	</g>
	<g>
		<path class="st2" d="M380.18,442.17c-1.61,1.38-3.77,1.96-5.4,3.09c-1.77,1.23-3.09,3.03-4.82,3.94
			c-1.95,1.03-4.19,1.07-5.98,1.67c-2.2,0.74-4.11,1.97-5.89,1.99c-2.43,0.04-4.07-1.32-5.28-2.74c-1.22-1.42-2.31-3.25-1.89-5.65
			c0.3-1.76,1.81-3.45,2.88-5.51c0.87-1.68,1.26-3.88,2.58-5.65c1.17-1.56,3.15-2.59,4.64-4.15c1.37-1.44,2.28-3.48,3.89-4.86
			c1.61-1.38,3.77-1.96,5.4-3.09c1.77-1.23,3.09-3.03,4.82-3.94c1.95-1.03,4.19-1.07,5.98-1.67c2.2-0.74,4.11-1.97,5.89-1.99
			c2.43-0.04,4.07,1.32,5.28,2.74c1.22,1.42,2.31,3.25,1.89,5.65c-0.3,1.76-1.81,3.45-2.88,5.51c-0.87,1.68-1.26,3.88-2.58,5.65
			c-1.17,1.56-3.15,2.59-4.64,4.15C382.7,438.75,381.79,440.79,380.18,442.17z"/>
	</g>
	<g>
		<path class="st2" d="M378.35,441.47c-1.22,1.05-2.86,1.49-4.1,2.35c-1.34,0.93-2.35,2.3-3.65,2.99c-1.48,0.78-3.18,0.82-4.54,1.27
			c-1.67,0.56-3.12,1.49-4.47,1.51c-1.85,0.03-3.09-1-4.01-2.08c-0.92-1.08-1.75-2.46-1.44-4.28c0.23-1.33,1.38-2.62,2.19-4.18
			c0.66-1.27,0.95-2.95,1.96-4.29c0.89-1.19,2.39-1.96,3.52-3.15c1.04-1.09,1.73-2.64,2.95-3.69c1.22-1.05,2.86-1.49,4.1-2.35
			c1.34-0.93,2.35-2.3,3.65-2.99c1.48-0.78,3.18-0.82,4.54-1.27c1.67-0.56,3.12-1.49,4.47-1.51c1.85-0.03,3.09,1,4.01,2.08
			c0.92,1.08,1.75,2.46,1.44,4.28c-0.23,1.33-1.38,2.62-2.19,4.18c-0.66,1.27-0.95,2.95-1.96,4.29c-0.89,1.19-2.39,1.96-3.52,3.15
			C380.27,438.88,379.58,440.43,378.35,441.47z"/>
	</g>
	<g>
		<path class="st2" d="M377.27,439.66c-0.94,0.81-2.2,1.15-3.16,1.81c-1.04,0.72-1.81,1.77-2.82,2.31c-1.14,0.6-2.45,0.63-3.5,0.98
			c-1.29,0.43-2.4,1.15-3.45,1.17c-1.42,0.02-2.38-0.77-3.09-1.61c-0.71-0.83-1.35-1.9-1.11-3.3c0.18-1.03,1.06-2.02,1.69-3.22
			c0.51-0.98,0.74-2.27,1.51-3.31c0.68-0.91,1.85-1.51,2.71-2.43c0.8-0.84,1.33-2.04,2.28-2.84c0.94-0.81,2.2-1.15,3.16-1.81
			c1.04-0.72,1.81-1.77,2.82-2.31c1.14-0.6,2.45-0.63,3.5-0.98c1.29-0.43,2.4-1.15,3.45-1.17c1.42-0.02,2.38,0.77,3.09,1.61
			c0.71,0.83,1.35,1.9,1.11,3.3c-0.18,1.03-1.06,2.02-1.69,3.22c-0.51,0.98-0.74,2.27-1.51,3.31c-0.68,0.91-1.85,1.51-2.71,2.43
			C378.74,437.66,378.21,438.85,377.27,439.66z"/>
	</g>
	<g>
		<path class="st2" d="M375.62,436.87c-0.71,0.49-1.58,0.63-2.21,1.04c-0.73,0.47-1.22,1.19-1.87,1.57
			c-0.75,0.43-1.63,0.48-2.31,0.81c-0.78,0.37-1.38,1-2.1,1.24c-0.79,0.26-1.65,0.1-2.42,0.23c-1.77,0.29-2.03-0.08-1.22-1.09
			c0.42-0.52,1.36-0.94,2.2-1.74c0.6-0.57,1.04-1.47,1.78-2.16c0.64-0.6,1.56-0.98,2.26-1.66c0.64-0.63,1.04-1.54,1.7-2.23
			c0.46-0.49,1.17-0.64,1.62-1.01c0.53-0.42,0.85-1.07,1.35-1.36c0.6-0.34,1.32-0.26,1.86-0.45c0.68-0.23,1.21-0.71,1.74-0.78
			c1.15-0.14,1.02,0.6,1.93,0.37c1.29-0.66,1.68-0.41,1.35,0.43c-0.2,0.5-0.91,0.99-1.42,1.72c-0.4,0.56-0.57,1.38-1.06,1.96
			c-0.48,0.57-1.26,0.89-1.75,1.39C376.45,435.76,376.1,436.54,375.62,436.87z"/>
	</g>
</g>
<g>
	<g>
		<path class="st0" d="M425.91,449.59c-16.96-5.61-13.43-12.93-28.37-22.72c-14.94-9.79-16.87-6.86-31.81-16.65
			c-14.94-9.79-13.02-12.73-27.96-22.53c-14.95-9.8-16.87-6.86-31.82-16.66c-14.95-9.8-15.7-8.92-27.62-22.23
			c-3.18-3.55-0.17-3.78,2.45-7.76c2.61-3.99,5.55-2.06,8.16-6.05c2.61-3.98-0.33-5.91,2.29-9.89c2.61-3.99,5.55-2.06,8.16-6.05
			c2.61-3.99-0.22-12.1,4.31-10.6c16.96,5.61,13.43,12.93,28.37,22.72c14.94,9.79,16.87,6.86,31.81,16.65
			c14.94,9.79,13.02,12.73,27.96,22.53c14.95,9.8,16.87,6.86,31.82,16.66c14.95,9.8,15.7,8.92,27.62,22.23
			c3.18,3.55,0.17,3.78-2.45,7.76c-2.61,3.99-5.55,2.06-8.16,6.05c-2.61,3.98,0.33,5.91-2.29,9.89c-2.61,3.99-6.83,1.93-8.36,6.45
			C428.02,445.31,430.44,451.08,425.91,449.59z"/>
	</g>
	<g>
		<path class="st1" d="M450.41,437.5c-1.12,1.71-2.99,2.77-4.25,4.21c-1.36,1.55-2.2,3.54-3.65,4.74c-1.63,1.34-3.75,1.74-5.38,2.58
			c-1.93,0.99-3.6,2.41-5.37,2.6c-2.12,0.23-3.88-0.91-5.49-1.97c-1.61-1.06-3.36-2.21-4-4.25c-0.53-1.71,0.1-3.79,0.24-5.96
			c0.12-1.83-0.36-3.94,0.22-5.96c0.52-1.81,2.01-3.37,2.89-5.24c0.81-1.73,1.04-3.87,2.16-5.58c1.12-1.71,2.99-2.77,4.25-4.21
			c1.36-1.55,2.2-3.54,3.65-4.74c1.63-1.34,3.75-1.74,5.38-2.58c1.93-0.99,3.6-2.41,5.37-2.6c2.12-0.23,3.88,0.91,5.49,1.97
			c1.61,1.06,3.36,2.21,4,4.25c0.53,1.71-0.1,3.79-0.24,5.96c-0.12,1.83,0.36,3.94-0.22,5.96c-0.52,1.81-2.01,3.37-2.89,5.24
			C451.76,433.65,451.53,435.8,450.41,437.5z"/>
	</g>
	<g>
		<path class="st2" d="M449.05,436.42c-0.99,1.52-2.66,2.47-3.78,3.74c-1.21,1.38-1.96,3.16-3.25,4.22
			c-1.45,1.19-3.34,1.55-4.79,2.3c-1.72,0.88-3.2,2.14-4.78,2.32c-1.89,0.21-3.45-0.81-4.89-1.75c-1.43-0.94-2.99-1.97-3.56-3.78
			c-0.47-1.52,0.09-3.38,0.21-5.31c0.1-1.63-0.32-3.5,0.19-5.31c0.46-1.61,1.79-3,2.57-4.66c0.72-1.54,0.93-3.45,1.92-4.97
			c0.99-1.52,2.66-2.47,3.78-3.74c1.21-1.38,1.96-3.16,3.25-4.22c1.45-1.19,3.34-1.55,4.79-2.3c1.72-0.88,3.2-2.14,4.78-2.32
			c1.89-0.21,3.45,0.81,4.89,1.75c1.43,0.94,2.99,1.97,3.56,3.78c0.47,1.52-0.09,3.38-0.21,5.31c-0.1,1.63,0.32,3.5-0.19,5.31
			c-0.46,1.61-1.79,3-2.57,4.66C450.25,432.99,450.05,434.9,449.05,436.42z"/>
	</g>
	<g>
		<path class="st2" d="M447.18,436.08c-0.75,1.15-2.02,1.87-2.87,2.84c-0.92,1.05-1.48,2.39-2.46,3.2c-1.1,0.91-2.53,1.18-3.64,1.74
			c-1.31,0.67-2.43,1.62-3.63,1.76c-1.43,0.16-2.62-0.62-3.71-1.33c-1.09-0.71-2.27-1.49-2.7-2.87c-0.36-1.15,0.07-2.56,0.16-4.03
			c0.08-1.24-0.25-2.66,0.15-4.03c0.35-1.22,1.36-2.28,1.95-3.54c0.55-1.17,0.71-2.62,1.46-3.77c0.75-1.15,2.02-1.87,2.87-2.84
			c0.92-1.05,1.48-2.39,2.46-3.2c1.1-0.91,2.53-1.18,3.64-1.74c1.31-0.67,2.43-1.62,3.63-1.76c1.43-0.16,2.62,0.62,3.71,1.33
			c1.09,0.71,2.27,1.49,2.7,2.87c0.36,1.15-0.07,2.56-0.16,4.03c-0.08,1.24,0.25,2.66-0.15,4.03c-0.35,1.22-1.36,2.28-1.95,3.54
			C448.09,433.48,447.94,434.93,447.18,436.08z"/>
	</g>
	<g>
		<path class="st2" d="M445.55,434.68c-0.58,0.89-1.56,1.44-2.21,2.19c-0.71,0.81-1.15,1.85-1.9,2.47c-0.85,0.7-1.95,0.91-2.8,1.34
			c-1.01,0.52-1.87,1.25-2.8,1.35c-1.1,0.12-2.02-0.48-2.86-1.03c-0.84-0.55-1.75-1.15-2.08-2.21c-0.28-0.89,0.05-1.97,0.13-3.1
			c0.06-0.95-0.19-2.05,0.11-3.11c0.27-0.94,1.05-1.75,1.51-2.73c0.42-0.9,0.54-2.02,1.13-2.9c0.58-0.89,1.56-1.44,2.21-2.19
			c0.71-0.81,1.15-1.85,1.9-2.47c0.85-0.7,1.95-0.91,2.8-1.34c1.01-0.52,1.87-1.25,2.8-1.35c1.1-0.12,2.02,0.48,2.86,1.03
			c0.84,0.55,1.75,1.15,2.08,2.21c0.28,0.89-0.05,1.97-0.13,3.1c-0.06,0.95,0.19,2.05-0.11,3.11c-0.27,0.94-1.05,1.75-1.51,2.73
			C446.25,432.67,446.13,433.79,445.55,434.68z"/>
	</g>
	<g>
		<path class="st2" d="M443.04,432.49c-0.46,0.53-1.11,0.84-1.54,1.3c-0.49,0.52-0.76,1.18-1.21,1.6c-0.52,0.48-1.2,0.7-1.69,1.08
			c-0.56,0.42-0.96,1.01-1.51,1.31c-0.59,0.32-1.3,0.34-1.92,0.55c-1.38,0.47-1.81,0.28-1.56-0.56c0.15-0.5,0.76-1.09,1.24-1.95
			c0.33-0.59,0.49-1.39,0.9-2.12c0.36-0.62,0.97-1.16,1.36-1.86c0.35-0.65,0.46-1.45,0.8-2.16c0.25-0.51,0.75-0.82,1.04-1.21
			c0.33-0.46,0.49-1.03,0.85-1.35c0.43-0.38,1.02-0.46,1.44-0.69c0.52-0.28,0.92-0.72,1.36-0.84c0.91-0.25,0.93,0.37,1.64,0.04
			c0.86-0.72,1.31-0.65,1.37,0.03c0.03,0.44-0.33,1.05-0.52,1.77c-0.14,0.55-0.08,1.23-0.3,1.82c-0.22,0.58-0.72,1.04-0.99,1.56
			C443.46,431.44,443.35,432.13,443.04,432.49z"/>
	</g>
</g>
<g>
	<g>
		<path class="st0" d="M109.38,419.26c13.31-16.31,18.63-11.11,34.62-24.8c16-13.69,13.6-16.49,29.59-30.18
			c16-13.69,18.4-10.88,34.39-24.56c16-13.69,13.6-16.49,29.6-30.18c16-13.69,15.96-13.75,34.13-24.38
			c3.28-1.92,2.94,0.09,5.41,2.98c2.47,2.88-0.34,5.29,2.13,8.17c2.47,2.89,5.28,0.49,7.75,3.37c2.47,2.89-0.34,5.29,2.14,8.18
			c2.47,2.89,10.18,2.8,7.78,5.74c-13.31,16.31-18.63,11.11-34.62,24.8c-16,13.69-13.6,16.49-29.59,30.18
			c-16,13.69-18.4,10.88-34.39,24.56c-16,13.69-13.6,16.49-29.6,30.18c-16,13.69-15.96,13.75-34.13,24.38
			c-3.28,1.92-2.94-0.09-5.41-2.98c-2.47-2.88,0.34-5.29-2.13-8.17c-2.47-2.89-5.28-0.49-7.75-3.37c-2.47-2.89,0.63-6.28-2.47-8.48
			C112.56,421.66,106.98,422.21,109.38,419.26z"/>
	</g>
	<g>
		<path class="st1" d="M109.42,444.53c-1.21-1.42-1.64-3.32-2.44-4.88c-0.85-1.66-2.12-3.14-2.49-4.85
			c-0.4-1.82,0.16-3.69,0.31-5.44c0.15-1.85-0.06-3.79,0.7-5.4c0.77-1.62,2.4-2.66,3.81-3.86c1.4-1.2,2.68-2.65,4.41-3.17
			c1.7-0.5,3.59,0.01,5.44,0.15c1.75,0.13,3.68-0.14,5.42,0.54c1.63,0.64,2.9,2.12,4.41,3.22c1.42,1.03,3.23,1.75,4.45,3.16
			c1.21,1.42,1.64,3.32,2.44,4.88c0.85,1.66,2.12,3.14,2.49,4.85c0.4,1.82-0.16,3.69-0.31,5.44c-0.15,1.85,0.06,3.79-0.7,5.4
			c-0.77,1.62-2.4,2.66-3.81,3.86c-1.4,1.2-2.68,2.65-4.41,3.17c-1.7,0.5-3.59-0.01-5.44-0.15c-1.75-0.13-3.68,0.14-5.42-0.54
			c-1.63-0.64-2.9-2.12-4.41-3.22C112.45,446.67,110.64,445.95,109.42,444.53z"/>
	</g>
	<g>
		<path class="st2" d="M111.04,443.32c-1.08-1.26-1.46-2.96-2.17-4.35c-0.76-1.48-1.89-2.8-2.22-4.32
			c-0.36-1.62,0.15-3.29,0.27-4.84c0.13-1.65-0.06-3.38,0.62-4.8c0.69-1.45,2.14-2.37,3.39-3.44c1.25-1.07,2.39-2.36,3.92-2.82
			c1.51-0.45,3.2,0.01,4.84,0.13c1.56,0.12,3.27-0.12,4.82,0.48c1.45,0.57,2.58,1.89,3.92,2.86c1.26,0.92,2.88,1.55,3.96,2.82
			c1.08,1.26,1.46,2.96,2.17,4.35c0.76,1.48,1.89,2.8,2.22,4.32c0.36,1.62-0.15,3.29-0.27,4.84c-0.13,1.65,0.06,3.38-0.62,4.8
			c-0.69,1.45-2.14,2.37-3.39,3.44c-1.25,1.07-2.39,2.36-3.92,2.82c-1.51,0.45-3.2-0.01-4.84-0.13c-1.56-0.12-3.27,0.12-4.82-0.48
			c-1.45-0.57-2.58-1.89-3.92-2.86C113.74,445.22,112.13,444.58,111.04,443.32z"/>
	</g>
	<g>
		<path class="st2" d="M112.2,441.55c-0.82-0.96-1.11-2.24-1.65-3.3c-0.57-1.12-1.43-2.12-1.69-3.28c-0.27-1.23,0.11-2.49,0.21-3.67
			c0.1-1.25-0.04-2.56,0.47-3.65c0.52-1.1,1.62-1.8,2.57-2.61c0.95-0.81,1.81-1.79,2.98-2.14c1.15-0.34,2.43,0.01,3.68,0.1
			c1.18,0.09,2.48-0.09,3.66,0.36c1.1,0.43,1.96,1.43,2.98,2.17c0.96,0.7,2.18,1.18,3,2.14c0.82,0.96,1.11,2.24,1.65,3.3
			c0.57,1.12,1.43,2.12,1.69,3.28c0.27,1.23-0.11,2.49-0.21,3.67c-0.1,1.25,0.04,2.56-0.47,3.65c-0.52,1.1-1.62,1.8-2.57,2.61
			c-0.95,0.81-1.81,1.79-2.98,2.14c-1.15,0.34-2.43-0.01-3.68-0.1c-1.18-0.09-2.48,0.09-3.66-0.36c-1.1-0.43-1.96-1.43-2.98-2.17
			C114.24,442.99,113.02,442.51,112.2,441.55z"/>
	</g>
	<g>
		<path class="st2" d="M114.24,440.1c-0.63-0.74-0.85-1.73-1.27-2.54c-0.44-0.87-1.1-1.64-1.3-2.53c-0.21-0.95,0.09-1.92,0.16-2.83
			c0.08-0.96-0.03-1.98,0.36-2.81c0.4-0.85,1.25-1.39,1.98-2.01c0.73-0.63,1.4-1.38,2.3-1.65c0.89-0.26,1.87,0,2.83,0.08
			c0.91,0.07,1.92-0.07,2.82,0.28c0.85,0.33,1.51,1.1,2.3,1.67c0.74,0.54,1.68,0.91,2.32,1.65c0.63,0.74,0.85,1.73,1.27,2.54
			c0.44,0.87,1.1,1.64,1.3,2.53c0.21,0.95-0.09,1.92-0.16,2.83c-0.08,0.96,0.03,1.98-0.36,2.81c-0.4,0.85-1.25,1.39-1.98,2.01
			c-0.73,0.63-1.4,1.38-2.3,1.65c-0.89,0.26-1.87,0-2.83-0.08c-0.91-0.07-1.92,0.07-2.82-0.28c-0.85-0.33-1.51-1.1-2.3-1.67
			C115.82,441.21,114.87,440.84,114.24,440.1z"/>
	</g>
	<g>
		<path class="st2" d="M117.39,437.86c-0.29-0.52-0.33-1.14-0.56-1.62c-0.26-0.54-0.71-0.96-0.89-1.46
			c-0.2-0.56-0.12-1.17-0.23-1.69c-0.12-0.57-0.43-1.09-0.44-1.65c-0.01-0.55,0.27-1.1,0.36-1.67c0.17-1.11,0.36-1.68,0.81-1.63
			c0.41,0.04,0.83,0.66,1.49,1.27c0.41,0.38,1.04,0.66,1.55,1.17c0.43,0.42,0.72,1.06,1.22,1.52c0.46,0.42,1.11,0.65,1.63,1.07
			c0.4,0.32,0.53,0.83,0.78,1.18c0.28,0.41,0.7,0.73,0.82,1.16c0.13,0.47-0.07,0.97-0.08,1.41c-0.01,0.51,0.16,1.01,0.06,1.42
			c-0.2,0.78-0.69,0.57-0.72,1.27c0.23,0.79,0.12,1.28-0.38,1.35c-0.39,0.05-0.9-0.3-1.5-0.53c-0.46-0.18-1.05-0.19-1.52-0.47
			c-0.46-0.27-0.76-0.79-1.15-1.1C118.16,438.46,117.59,438.22,117.39,437.86z"/>
	</g>
</g>
<g>
	<g>
		<path class="st0" d="M210.73,410.81c5.84-13.08,11.31-9.73,20.33-20.87c9.02-11.14,6.91-12.84,15.93-23.98
			c9.02-11.14,11.12-9.43,20.14-20.57c9.02-11.14,6.92-12.84,15.94-23.98s8.31-11.89,19.89-20.33c3.09-2.25,3.02,0.26,5.99,2.66
			c2.97,2.4,1.26,4.51,4.23,6.91c2.97,2.41,4.67,0.3,7.64,2.71c2.97,2.41,1.27,4.51,4.24,6.92c2.97,2.41,9.59,0.82,8.03,4.31
			c-5.84,13.08-11.31,9.73-20.33,20.87c-9.02,11.14-6.91,12.84-15.93,23.98c-9.02,11.14-11.12,9.43-20.14,20.57
			c-9.02,11.14-6.92,12.84-15.94,23.98c-9.02,11.14-8.31,11.89-19.89,20.33c-3.09,2.25-3.02-0.26-5.99-2.66
			c-2.97-2.4-1.26-4.51-4.23-6.91c-2.97-2.41-4.67-0.3-7.64-2.71c-2.97-2.41-1.05-5.51-4.53-7.1
			C213.92,412.88,209.17,414.31,210.73,410.81z"/>
	</g>
	<g>
		<path class="st1" d="M218.35,431.31c-1.27-1.03-1.99-2.59-3.03-3.71c-1.13-1.21-2.63-2.06-3.47-3.31
			c-0.94-1.41-1.11-3.12-1.65-4.49c-0.63-1.62-1.6-3.07-1.61-4.5c-0.01-1.71,1.02-3.03,1.99-4.23c0.97-1.2,2.05-2.48,3.73-2.82
			c1.4-0.29,3.02,0.36,4.74,0.64c1.45,0.24,3.16,0.05,4.73,0.68c1.4,0.56,2.54,1.85,3.96,2.7c1.31,0.79,2.99,1.17,4.26,2.2
			c1.27,1.03,1.99,2.59,3.03,3.71c1.13,1.21,2.63,2.06,3.47,3.31c0.94,1.41,1.11,3.12,1.65,4.49c0.63,1.62,1.6,3.07,1.61,4.5
			c0.01,1.71-1.02,3.03-1.99,4.23c-0.97,1.2-2.05,2.48-3.73,2.82c-1.4,0.29-3.02-0.36-4.74-0.64c-1.45-0.24-3.16-0.05-4.73-0.68
			c-1.4-0.56-2.54-1.85-3.96-2.7C221.3,432.72,219.62,432.34,218.35,431.31z"/>
	</g>
	<g>
		<path class="st2" d="M219.33,430.31c-1.13-0.92-1.77-2.31-2.7-3.3c-1.01-1.08-2.34-1.83-3.09-2.95c-0.84-1.25-0.99-2.78-1.47-4
			c-0.56-1.44-1.43-2.73-1.44-4.01c-0.01-1.52,0.9-2.7,1.77-3.77c0.87-1.07,1.82-2.21,3.32-2.51c1.25-0.25,2.69,0.32,4.22,0.57
			c1.29,0.21,2.82,0.05,4.21,0.61c1.25,0.5,2.26,1.65,3.52,2.41c1.17,0.7,2.66,1.04,3.79,1.96c1.13,0.92,1.77,2.31,2.7,3.3
			c1.01,1.08,2.34,1.83,3.09,2.95c0.84,1.25,0.99,2.78,1.47,4c0.56,1.44,1.43,2.73,1.44,4.01c0.01,1.52-0.9,2.7-1.77,3.77
			c-0.87,1.07-1.82,2.21-3.32,2.51c-1.25,0.25-2.69-0.32-4.22-0.57c-1.29-0.21-2.82-0.05-4.21-0.61c-1.25-0.5-2.26-1.65-3.52-2.41
			C221.95,431.57,220.46,431.23,219.33,430.31z"/>
	</g>
	<g>
		<path class="st2" d="M219.74,428.85c-0.86-0.7-1.34-1.75-2.05-2.51c-0.76-0.82-1.78-1.39-2.34-2.24
			c-0.64-0.95-0.75-2.11-1.12-3.03c-0.43-1.1-1.08-2.07-1.09-3.04c-0.01-1.16,0.69-2.05,1.34-2.86c0.66-0.81,1.38-1.68,2.52-1.91
			c0.95-0.19,2.04,0.24,3.2,0.43c0.98,0.16,2.14,0.04,3.2,0.46c0.95,0.38,1.71,1.25,2.67,1.83c0.89,0.53,2.02,0.79,2.88,1.49
			c0.86,0.7,1.34,1.75,2.05,2.51c0.76,0.82,1.78,1.39,2.34,2.24c0.64,0.95,0.75,2.11,1.12,3.03c0.43,1.1,1.08,2.07,1.09,3.04
			c0.01,1.16-0.69,2.05-1.34,2.86c-0.66,0.81-1.38,1.68-2.52,1.91c-0.95,0.19-2.04-0.24-3.2-0.43c-0.98-0.16-2.14-0.04-3.2-0.46
			c-0.95-0.38-1.71-1.25-2.67-1.83C221.74,429.8,220.6,429.54,219.74,428.85z"/>
	</g>
	<g>
		<path class="st2" d="M221,427.66c-0.66-0.54-1.04-1.35-1.58-1.93c-0.59-0.63-1.37-1.07-1.81-1.73c-0.49-0.73-0.58-1.62-0.86-2.34
			c-0.33-0.84-0.83-1.6-0.84-2.34c-0.01-0.89,0.53-1.58,1.04-2.2c0.51-0.63,1.07-1.29,1.94-1.47c0.73-0.15,1.57,0.19,2.47,0.34
			c0.76,0.12,1.65,0.03,2.46,0.36c0.73,0.29,1.32,0.96,2.06,1.41c0.68,0.41,1.56,0.61,2.22,1.14c0.66,0.54,1.04,1.35,1.58,1.93
			c0.59,0.63,1.37,1.07,1.81,1.73c0.49,0.73,0.58,1.62,0.86,2.34c0.33,0.84,0.83,1.6,0.84,2.34c0.01,0.89-0.53,1.58-1.04,2.2
			c-0.51,0.63-1.07,1.29-1.94,1.47c-0.73,0.15-1.57-0.19-2.47-0.34c-0.76-0.12-1.65-0.03-2.46-0.36c-0.73-0.29-1.32-0.96-2.06-1.41
			C222.53,428.39,221.66,428.2,221,427.66z"/>
	</g>
	<g>
		<path class="st2" d="M222.94,425.83c-0.39-0.41-0.59-0.95-0.92-1.32c-0.37-0.43-0.87-0.71-1.17-1.1
			c-0.34-0.45-0.47-1.01-0.73-1.43c-0.29-0.48-0.72-0.85-0.92-1.32c-0.21-0.5-0.17-1.06-0.29-1.57c-0.26-1.14-0.08-1.47,0.58-1.2
			c0.39,0.16,0.82,0.68,1.46,1.14c0.44,0.31,1.06,0.51,1.61,0.9c0.47,0.34,0.85,0.86,1.38,1.22c0.49,0.33,1.12,0.49,1.65,0.82
			c0.39,0.24,0.6,0.66,0.89,0.92c0.34,0.3,0.77,0.48,1.01,0.8c0.27,0.37,0.29,0.84,0.44,1.2c0.18,0.44,0.49,0.8,0.55,1.16
			c0.12,0.74-0.36,0.7-0.16,1.3c0.5,0.75,0.41,1.1-0.14,1.08c-0.35-0.01-0.82-0.34-1.37-0.55c-0.43-0.16-0.97-0.17-1.42-0.4
			c-0.45-0.22-0.78-0.65-1.17-0.9C223.74,426.27,223.21,426.11,222.94,425.83z"/>
	</g>
</g>
<radialGradient id="SVGID_1_" cx="277.7117" cy="248.6122" r="156.8946" gradientUnits="userSpaceOnUse">
	<stop  offset="0" style="stop-color:#EA5514"/>
	<stop  offset="1" style="stop-color:#FFFFFF;stop-opacity:0"/>
</radialGradient>
<ellipse class="st3" cx="277.71" cy="248.61" rx="137.42" ry="174.2"/>
<g>
	
		<radialGradient id="SVGID_2_" cx="340.2225" cy="285.7741" r="91.3034" gradientTransform="matrix(-0.999 -0.0442 0.0442 -0.999 660.0176 545.2576)" gradientUnits="userSpaceOnUse">
		<stop  offset="0" style="stop-color:#FAEE00"/>
		<stop  offset="1" style="stop-color:#EA5514;stop-opacity:0.2"/>
	</radialGradient>
	<path class="st4" d="M294.34,121.44c36.22,27.73,62.75,67.87,74.06,112.06c11.31,44.19,7.32,92.14-11.13,133.86"/>
	<g>
		<radialGradient id="SVGID_3_" cx="334.6236" cy="244.33" r="91.7489" gradientUnits="userSpaceOnUse">
			<stop  offset="0" style="stop-color:#FAEE00"/>
			<stop  offset="1" style="stop-color:#EA5514;stop-opacity:0"/>
		</radialGradient>
		<path class="st5" d="M290.56,127.92c53.83,41.56,82.37,109.48,75.62,176.94c-2.02,20.14-7.28,40.18-15.38,58.72
			c-1.63,3.74-1.07,8.01,2.69,10.26c3.16,1.89,8.64,1.01,10.26-2.69c30.5-69.78,22.32-152.11-23.41-213.4
			c-12.11-16.23-26.18-30.42-42.2-42.79c-3.23-2.49-8.37-0.47-10.26,2.69C285.56,121.5,287.37,125.46,290.56,127.92L290.56,127.92z"
			/>
	</g>
</g>
<g>
	<radialGradient id="SVGID_4_" cx="300" cy="300" r="78.9651" gradientUnits="userSpaceOnUse">
		<stop  offset="0" style="stop-color:#FAEE00"/>
		<stop  offset="1" style="stop-color:#EA5514;stop-opacity:0"/>
	</radialGradient>
	<path class="st6" d="M264.36,405.7c-4-76.12,22.21-153.41,71.68-211.4"/>
	<g>
		<radialGradient id="SVGID_5_" cx="299.8569" cy="299.7174" r="79.2843" gradientUnits="userSpaceOnUse">
			<stop  offset="0" style="stop-color:#FAEE00"/>
			<stop  offset="1" style="stop-color:#EA5514;stop-opacity:0"/>
		</radialGradient>
		<path class="st7" d="M271.86,405.7c-2.87-57.86,11.51-115.93,40.92-165.84c8.37-14.21,17.9-27.68,28.57-40.25
			c6.21-7.32-4.35-17.98-10.61-10.61c-39.69,46.79-64.66,104.58-72.08,165.46c-2.07,17-2.65,34.14-1.8,51.24
			C257.33,415.3,272.34,415.36,271.86,405.7L271.86,405.7z"/>
	</g>
</g>
<g>
	
		<radialGradient id="SVGID_6_" cx="221.3588" cy="207.5571" r="138.1881" gradientTransform="matrix(0.9857 0.1684 -0.1684 0.9857 38.1028 -34.3043)" gradientUnits="userSpaceOnUse">
		<stop  offset="0" style="stop-color:#FAEE00"/>
		<stop  offset="1" style="stop-color:#EA5514;stop-opacity:0.2"/>
	</radialGradient>
	<path class="st8" d="M273.78,19.29c-25.49,17.59-38.11,48.32-47.4,77.86c-30.76,97.84-39.58,202.5-25.62,304.11"/>
	<g>
		<radialGradient id="SVGID_7_" cx="233.8496" cy="210.0891" r="138.1831" gradientUnits="userSpaceOnUse">
			<stop  offset="0" style="stop-color:#FAEE00"/>
			<stop  offset="1" style="stop-color:#EA5514;stop-opacity:0"/>
		</radialGradient>
		<path class="st9" d="M269.99,12.82c-19.63,13.84-32.22,33.95-41.33,55.82c-9.95,23.89-16.75,49.3-22.71,74.44
			c-12.91,54.47-19.37,110.57-19.13,166.55c0.13,31.34,2.48,62.58,6.7,93.62c0.54,4.01,5.7,6.23,9.23,5.24
			c4.33-1.21,5.79-5.18,5.24-9.23c-7.2-52.91-8.05-106.74-2.93-159.88c5-51.94,15.49-104.33,32.99-153.57
			c8.05-22.63,19.36-45.85,39.51-60.05C285.39,20.25,277.91,7.24,269.99,12.82L269.99,12.82z"/>
	</g>
</g>
<g>
	<radialGradient id="SVGID_8_" cx="258.981" cy="239.2641" r="79.9252" gradientUnits="userSpaceOnUse">
		<stop  offset="0" style="stop-color:#FAEE00"/>
		<stop  offset="1" style="stop-color:#EA5514;stop-opacity:0.2"/>
	</radialGradient>
	<path class="st10" d="M269.42,351.53c-32.29-70.29-31.3-155.03,2.65-224.54"/>
	<g>
		<radialGradient id="SVGID_9_" cx="258.9556" cy="239.1663" r="80.1751" gradientUnits="userSpaceOnUse">
			<stop  offset="0" style="stop-color:#FAEE00"/>
			<stop  offset="1" style="stop-color:#EA5514;stop-opacity:0"/>
		</radialGradient>
		<path class="st11" d="M275.9,347.75c-24.1-52.93-28.83-114.17-14.36-170.4c4.13-16.05,9.79-31.65,17.01-46.57
			c4.19-8.65-8.74-16.27-12.95-7.57c-27.28,56.35-34.2,121.45-19.83,182.38c4.04,17.13,9.9,33.72,17.19,49.73
			c1.69,3.72,7,4.55,10.26,2.69C277.02,355.84,277.57,351.41,275.9,347.75L275.9,347.75z"/>
	</g>
</g>
<g>
	
		<radialGradient id="SVGID_10_" cx="353.7119" cy="235.849" r="108.1245" gradientTransform="matrix(0.8364 0.5482 -0.5482 0.8364 187.1664 -155.3025)" gradientUnits="userSpaceOnUse">
		<stop  offset="0" style="stop-color:#FAEE00"/>
		<stop  offset="1" style="stop-color:#EA5514;stop-opacity:0.2"/>
	</radialGradient>
	<path class="st12" d="M387.27,86.67c14.17,75.2,5.96,154.49-23.34,225.19c-5.96,14.38-12.92,28.64-23.51,40.05
		c-10.59,11.41-25.32,19.75-40.88,19.63"/>
	<g>
		<radialGradient id="SVGID_11_" cx="347.0409" cy="229.142" r="106.4638" gradientUnits="userSpaceOnUse">
			<stop  offset="0" style="stop-color:#FAEE00"/>
			<stop  offset="1" style="stop-color:#EA5514;stop-opacity:0"/>
		</radialGradient>
		<path class="st13" d="M380.04,88.66c7.57,40.7,8.57,82.72,3.01,123.75c-2.75,20.29-7.15,40.38-13.02,60
			c-5.72,19.12-12.47,38.53-22.16,56.04c-10.01,18.08-26.2,35.33-48.32,35.58c-9.65,0.11-9.67,15.11,0,15
			c46.44-0.51,67.15-50.05,79.95-87.15c14.55-42.17,21.96-86.93,22.04-131.53c0.05-25.38-2.4-50.73-7.04-75.68
			C392.74,75.19,378.28,79.21,380.04,88.66L380.04,88.66z"/>
	</g>
</g>
<g>
	<radialGradient id="SVGID_12_" cx="205.3192" cy="250.0671" r="86.2394" gradientUnits="userSpaceOnUse">
		<stop  offset="0" style="stop-color:#FAEE00"/>
		<stop  offset="1" style="stop-color:#EA5514;stop-opacity:0.2"/>
	</radialGradient>
	<path class="st14" d="M279.17,347.13c-27.01-5.07-46.5-28.17-62.59-50.45c-32.63-45.19-61.15-93.35-85.1-143.67"/>
	<g>
		<radialGradient id="SVGID_13_" cx="205.1396" cy="250.2054" r="86.5546" gradientUnits="userSpaceOnUse">
			<stop  offset="0" style="stop-color:#FAEE00"/>
			<stop  offset="1" style="stop-color:#EA5514;stop-opacity:0"/>
		</radialGradient>
		<path class="st15" d="M281.16,339.9c-28.34-5.7-46.68-30.85-62.43-53.05c-19.71-27.78-37.89-56.65-54.42-86.43
			c-9.32-16.79-18.09-33.87-26.36-51.2c-4.16-8.71-17.09-1.11-12.95,7.57c15.21,31.86,32.17,62.87,50.89,92.81
			c9.52,15.23,19.49,30.18,29.89,44.82c8.82,12.42,17.86,24.87,28.78,35.56c11.87,11.63,26.13,21.06,42.62,24.38
			C286.6,356.26,290.63,341.8,281.16,339.9L281.16,339.9z"/>
	</g>
</g>
<g>
	<radialGradient id="SVGID_14_" cx="180.5458" cy="247.4541" r="83.8976" gradientUnits="userSpaceOnUse">
		<stop  offset="0" style="stop-color:#FAEE00"/>
		<stop  offset="1" style="stop-color:#EA5514;stop-opacity:0.2"/>
	</radialGradient>
	<path class="st16" d="M214.53,361.13c-33.94-25.36-57.77-63.89-65.32-105.58s1.27-86.13,24.17-121.78"/>
	<g>
		<radialGradient id="SVGID_15_" cx="180.4455" cy="247.6038" r="84.1534" gradientUnits="userSpaceOnUse">
			<stop  offset="0" style="stop-color:#FAEE00"/>
			<stop  offset="1" style="stop-color:#EA5514;stop-opacity:0"/>
		</radialGradient>
		<path class="st17" d="M218.31,354.66c-50.56-38.17-74.38-104.47-59.95-166.06c4.25-18.16,11.5-35.29,21.49-51.04
			c5.19-8.17-7.79-15.71-12.95-7.57c-37.97,59.81-36.62,138.75,4.21,196.77c11.05,15.7,24.32,29.29,39.63,40.85
			c3.26,2.46,8.35,0.49,10.26-2.69C223.29,361.1,221.53,357.08,218.31,354.66L218.31,354.66z"/>
	</g>
</g>
<g>
	<radialGradient id="SVGID_16_" cx="241.0432" cy="199.0796" r="96.3459" gradientUnits="userSpaceOnUse">
		<stop  offset="0" style="stop-color:#FAEE00"/>
		<stop  offset="1" style="stop-color:#EA5514;stop-opacity:0.2"/>
	</radialGradient>
	<path class="st18" d="M197.59,69.94c18.76,89.09,48,175.97,86.91,258.28"/>
	<g>
		<radialGradient id="SVGID_17_" cx="240.9675" cy="199.2104" r="96.5249" gradientUnits="userSpaceOnUse">
			<stop  offset="0" style="stop-color:#FAEE00"/>
			<stop  offset="1" style="stop-color:#EA5514;stop-opacity:0"/>
		</radialGradient>
		<path class="st19" d="M190.36,71.94c14.77,69.87,35.86,138.36,63.08,204.39c7.73,18.76,15.92,37.33,24.58,55.68
			c4.12,8.72,17.05,1.12,12.95-7.57c-30.06-63.72-54.28-130.14-72.32-198.25c-5.11-19.29-9.71-38.71-13.84-58.24
			C202.82,58.51,188.36,62.5,190.36,71.94L190.36,71.94z"/>
	</g>
</g>
<g>
	<radialGradient id="SVGID_18_" cx="288.6987" cy="238.7817" r="84.0688" gradientUnits="userSpaceOnUse">
		<stop  offset="0" style="stop-color:#FAEE00"/>
		<stop  offset="1" style="stop-color:#EA5514;stop-opacity:0.2"/>
	</radialGradient>
	<path class="st20" d="M270.51,121.29c29.1,74.37,41.07,155.38,34.72,234.98"/>
	<g>
		<radialGradient id="SVGID_19_" cx="288.7159" cy="238.6261" r="84.2539" gradientUnits="userSpaceOnUse">
			<stop  offset="0" style="stop-color:#FAEE00"/>
			<stop  offset="1" style="stop-color:#EA5514;stop-opacity:0"/>
		</radialGradient>
		<path class="st21" d="M263.28,123.28c22.4,57.55,34.74,118.76,36,180.52c0.36,17.51-0.18,35.02-1.55,52.47
			c-0.75,9.63,14.25,9.58,15,0c4.87-62.51-1.28-125.89-18.08-186.31c-4.77-17.17-10.44-34.07-16.9-50.67
			c-1.46-3.76-5.04-6.41-9.23-5.24C264.92,115.06,261.8,119.48,263.28,123.28L263.28,123.28z"/>
	</g>
</g>
<g>
	<radialGradient id="SVGID_20_" cx="318.1372" cy="189.1231" r="111.5894" gradientUnits="userSpaceOnUse">
		<stop  offset="0" style="stop-color:#FAEE00"/>
		<stop  offset="1" style="stop-color:#EA5514;stop-opacity:0.2"/>
	</radialGradient>
	<path class="st22" d="M275.43,37.2c61.6,87.71,91.88,196.94,84.25,303.85"/>
	<g>
		<radialGradient id="SVGID_21_" cx="318.1826" cy="189.1716" r="111.6753" gradientUnits="userSpaceOnUse">
			<stop  offset="0" style="stop-color:#FAEE00"/>
			<stop  offset="1" style="stop-color:#EA5514;stop-opacity:0"/>
		</radialGradient>
		<path class="st23" d="M268.96,40.98c47.38,67.73,76.34,147.98,82.9,230.4c1.85,23.18,1.93,46.46,0.32,69.66
			c-0.67,9.63,14.33,9.59,15,0c5.88-84.58-11.48-170.23-48.92-246.23c-10.53-21.37-22.7-41.88-36.35-61.4
			C276.42,25.56,263.41,33.05,268.96,40.98L268.96,40.98z"/>
	</g>
</g>
<g>
	<radialGradient id="SVGID_22_" cx="371.6688" cy="193.4189" r="83.8902" gradientUnits="userSpaceOnUse">
		<stop  offset="0" style="stop-color:#FAEE00"/>
		<stop  offset="1" style="stop-color:#EA5514;stop-opacity:0.2"/>
	</radialGradient>
	<path class="st24" d="M347.82,77.2c14.5,21.81,26.17,45.51,34.62,70.3c9.17,26.88,14.58,55.36,12.69,83.7s-11.42,56.59-29.58,78.43
		"/>
	<g>
		<radialGradient id="SVGID_23_" cx="371.7105" cy="193.5523" r="84.0906" gradientUnits="userSpaceOnUse">
			<stop  offset="0" style="stop-color:#FAEE00"/>
			<stop  offset="1" style="stop-color:#EA5514;stop-opacity:0"/>
		</radialGradient>
		<path class="st25" d="M341.35,80.99c33.65,50.96,58.43,118.46,41.21,179.53c-4.47,15.88-11.83,31.02-22.3,43.81
			c-2.59,3.16-3.03,7.51,0,10.61c2.62,2.68,8.05,3.13,10.61,0c44.81-54.73,36.38-130.12,10.43-191.25
			c-7.45-17.56-16.49-34.36-27-50.27C349,65.4,336.01,72.9,341.35,80.99L341.35,80.99z"/>
	</g>
</g>
<g>
	<radialGradient id="SVGID_24_" cx="206.4579" cy="318.4977" r="53.946" gradientUnits="userSpaceOnUse">
		<stop  offset="0" style="stop-color:#FAEE00"/>
		<stop  offset="1" style="stop-color:#EA5514;stop-opacity:0.2"/>
	</radialGradient>
	<path class="st26" d="M212.02,394.59c-5.93-50.53-9.64-101.32-11.13-152.18"/>
	<g>
		<radialGradient id="SVGID_25_" cx="206.4739" cy="318.6284" r="53.928" gradientUnits="userSpaceOnUse">
			<stop  offset="0" style="stop-color:#FAEE00"/>
			<stop  offset="1" style="stop-color:#EA5514;stop-opacity:0"/>
		</radialGradient>
		<path class="st27" d="M219.52,394.59c-5.9-50.54-9.61-101.31-11.13-152.18c-0.29-9.63-15.29-9.67-15,0
			c1.52,50.86,5.23,101.63,11.13,152.18c0.47,4.02,3.11,7.5,7.5,7.5C215.71,402.09,219.99,398.64,219.52,394.59L219.52,394.59z"/>
	</g>
</g>
<g>
	<radialGradient id="SVGID_26_" cx="196.9702" cy="307.4503" r="67.1491" gradientUnits="userSpaceOnUse">
		<stop  offset="0" style="stop-color:#FAEE00"/>
		<stop  offset="1" style="stop-color:#EA5514;stop-opacity:0.2"/>
	</radialGradient>
	<path class="st28" d="M243.15,390.43c-54.35-36.86-89.68-100.34-92.37-165.95"/>
	<g>
		<radialGradient id="SVGID_27_" cx="196.7937" cy="307.7303" r="67.3935" gradientUnits="userSpaceOnUse">
			<stop  offset="0" style="stop-color:#FAEE00"/>
			<stop  offset="1" style="stop-color:#EA5514;stop-opacity:0"/>
		</radialGradient>
		<path class="st29" d="M246.94,383.95c-52.17-35.68-85.82-96.36-88.65-159.48c-0.43-9.61-15.43-9.67-15,0
			c2.38,53.11,24.61,104.45,61.24,142.94c10.52,11.05,22.25,20.88,34.84,29.48C247.36,402.37,254.87,389.37,246.94,383.95
			L246.94,383.95z"/>
	</g>
</g>
<g>
	<radialGradient id="SVGID_28_" cx="283.2441" cy="203.2921" r="100.7941" gradientUnits="userSpaceOnUse">
		<stop  offset="0" style="stop-color:#FAEE00"/>
		<stop  offset="1" style="stop-color:#EA5514;stop-opacity:0.2"/>
	</radialGradient>
	<path class="st30" d="M223.87,73.7c75.57,62.83,120.49,160.93,118.69,259.18"/>
	<g>
		<radialGradient id="SVGID_29_" cx="283.3343" cy="203.3322" r="100.9058" gradientUnits="userSpaceOnUse">
			<stop  offset="0" style="stop-color:#FAEE00"/>
			<stop  offset="1" style="stop-color:#EA5514;stop-opacity:0"/>
		</radialGradient>
		<path class="st31" d="M218.57,79c57.8,48.31,97.17,116.57,111.17,190.52c3.95,20.89,5.66,42.11,5.33,63.36
			c-0.15,9.66,14.85,9.66,15,0c1.23-78.3-26.08-155.66-74.57-216.93c-13.77-17.4-29.3-33.33-46.32-47.55
			C221.82,62.25,211.15,72.8,218.57,79L218.57,79z"/>
	</g>
</g>
<g>
	<radialGradient id="SVGID_30_" cx="281.7184" cy="126.904" r="65.3448" gradientUnits="userSpaceOnUse">
		<stop  offset="0" style="stop-color:#FAEE00"/>
		<stop  offset="1" style="stop-color:#EA5514;stop-opacity:0.2"/>
	</radialGradient>
	<path class="st32" d="M271.5,35.25c-4.25,39.64,0,80.16,12.39,118.05c3.54,10.83,7.76,21.56,9.19,32.87
		c1.43,11.31-0.3,23.57-7.53,32.38"/>
	<g>
		<radialGradient id="SVGID_31_" cx="281.7184" cy="126.8978" r="65.609" gradientUnits="userSpaceOnUse">
			<stop  offset="0" style="stop-color:#FAEE00"/>
			<stop  offset="1" style="stop-color:#EA5514;stop-opacity:0"/>
		</radialGradient>
		<path class="st33" d="M264,35.25c-3.29,31.66-1.35,63.79,5.7,94.84c3.41,15.02,8.87,29.29,13.12,44.05
			c3.56,12.36,6.02,28.09-2.57,39.11c-2.51,3.22-3.08,7.46,0,10.61c2.56,2.62,8.12,3.19,10.61,0c21.22-27.25,3.04-59.95-4.48-88.68
			c-8.53-32.59-10.86-66.44-7.38-99.93c0.42-4.03-3.75-7.5-7.5-7.5C267.09,27.75,264.42,31.21,264,35.25L264,35.25z"/>
	</g>
</g>
<g>
	<radialGradient id="SVGID_32_" cx="304.1722" cy="155.1619" r="64.0174" gradientUnits="userSpaceOnUse">
		<stop  offset="0" style="stop-color:#FAEE00"/>
		<stop  offset="1" style="stop-color:#EA5514;stop-opacity:0.2"/>
	</radialGradient>
	<path class="st34" d="M291.99,65.45c23.52,56.28,30.26,119.44,19.16,179.42"/>
	<g>
		<radialGradient id="SVGID_33_" cx="304.1915" cy="155.1098" r="64.1642" gradientUnits="userSpaceOnUse">
			<stop  offset="0" style="stop-color:#FAEE00"/>
			<stop  offset="1" style="stop-color:#EA5514;stop-opacity:0"/>
		</radialGradient>
		<path class="st35" d="M284.75,67.45c22.9,55.25,29.89,116.53,19.16,175.43c-1.72,9.44,12.74,13.49,14.46,3.99
			c11.2-61.5,4.79-125.6-19.16-183.41c-1.54-3.73-4.98-6.43-9.23-5.24C286.46,59.21,283.19,63.67,284.75,67.45L284.75,67.45z"/>
	</g>
</g>
<g>
	<radialGradient id="SVGID_34_" cx="307.2132" cy="143.4443" r="54.5204" gradientUnits="userSpaceOnUse">
		<stop  offset="0" style="stop-color:#FAEE00"/>
		<stop  offset="1" style="stop-color:#EA5514;stop-opacity:0.2"/>
	</radialGradient>
	<path class="st36" d="M330.25,69.99c-10.77-1.26-20.96,7.17-24.63,17.38s-2.03,21.59,1.21,31.94s8.03,20.2,10.78,30.69
		c2.75,10.49,3.28,22.15-1.78,31.74c-2.58,4.9-6.47,8.97-10.3,12.97c-7.12,7.44-14.24,14.87-21.36,22.31"/>
	<g>
		<radialGradient id="SVGID_35_" cx="307.0991" cy="143.5107" r="54.7567" gradientUnits="userSpaceOnUse">
			<stop  offset="0" style="stop-color:#FAEE00"/>
			<stop  offset="1" style="stop-color:#EA5514;stop-opacity:0"/>
		</radialGradient>
		<path class="st37" d="M330.25,62.49c-14.01-1.1-26.37,9-31.35,21.57c-6.16,15.57-1.35,32.57,4.32,47.48
			c5.1,13.4,12.57,29.28,7.29,43.77c-2.47,6.79-8.08,11.81-12.95,16.9c-6.23,6.51-12.46,13.01-18.69,19.52
			c-6.68,6.97,3.92,17.6,10.61,10.61c5.78-6.04,11.57-12.08,17.35-18.12c5.01-5.23,10.35-10.36,14.22-16.53
			c7.75-12.35,7.17-27.85,3.31-41.41c-4.07-14.31-12.22-27.92-13.23-42.98c-0.8-11.82,4.95-26.92,19.11-25.8
			C339.87,78.24,339.82,63.24,330.25,62.49L330.25,62.49z"/>
	</g>
</g>
<g>
	<radialGradient id="SVGID_36_" cx="239.5655" cy="139.0381" r="70.4506" gradientUnits="userSpaceOnUse">
		<stop  offset="0" style="stop-color:#FAEE00"/>
		<stop  offset="1" style="stop-color:#EA5514;stop-opacity:0.2"/>
	</radialGradient>
	<path class="st38" d="M286.13,50.96c-19.64,12.54-39.27,25.07-58.91,37.61c-15.51,9.9-32.66,22.4-34.13,40.74
		c-0.98,12.25,5.59,23.83,13.11,33.55s16.36,18.71,21.25,29.99c4.89,11.27,4.76,25.96-4.29,34.27"/>
	<g>
		<radialGradient id="SVGID_37_" cx="239.5175" cy="138.9329" r="70.8474" gradientUnits="userSpaceOnUse">
			<stop  offset="0" style="stop-color:#FAEE00"/>
			<stop  offset="1" style="stop-color:#EA5514;stop-opacity:0"/>
		</radialGradient>
		<path class="st39" d="M282.35,44.48c-15.71,10.03-31.42,20.06-47.13,30.09c-12.66,8.08-26.36,15.79-36.63,26.96
			c-10.07,10.96-15.26,24.78-11.98,39.62c3.51,15.87,15.23,27.71,24.87,40.09c8.25,10.59,18.37,28.79,6.38,40.57
			c-6.9,6.78,3.71,17.38,10.61,10.61c10.07-9.89,11.76-25.21,7.49-38.23c-4.97-15.14-16.78-25.86-25.78-38.5
			c-8.33-11.69-13.48-25.26-5.06-38.32c7.46-11.57,20.49-18.86,31.79-26.08c17.67-11.28,35.35-22.57,53.02-33.85
			C298.03,52.26,290.52,39.27,282.35,44.48L282.35,44.48z"/>
	</g>
</g>
<radialGradient id="SVGID_38_" cx="269.7851" cy="253.467" r="180.1494" gradientUnits="userSpaceOnUse">
	<stop  offset="0" style="stop-color:#EA5514"/>
	<stop  offset="1" style="stop-color:#FFFFFF;stop-opacity:0"/>
</radialGradient>
<ellipse class="st40" cx="269.79" cy="253.47" rx="175.68" ry="184.51"/>
</svg>
