<svg version="1.1" id="レイヤー_2" xmlns="http://www.w3.org/2000/svg" xmlns:xlink="http://www.w3.org/1999/xlink" x="0px"
	 y="0px" viewBox="0 0 200 200" style="enable-background:new 0 0 200 200;" xml:space="preserve">
<style type="text/css">
	.st0{fill:none;stroke:#FFFFFF;stroke-width:5;stroke-linecap:round;stroke-miterlimit:10;}
	.st1{fill:none;stroke:#FFFFFF;stroke-width:4;stroke-linecap:round;stroke-miterlimit:10;}
</style>
<path class="st0" d="M6.14,104.07c0,0-5.04,8.76,1.6,12.37s8.92,1.77,19.25-12.37S46.12,80.6,38.51,68.88c0,0-13.27,2.39-13.79,8.99
	c-0.53,6.6-0.52,34.58,3.09,37.6c3.6,3.02,16.5,1.1,30.93-35.18c0,0-17.47,12.29-9.12,12.62l15.3-2.77c0,0-17.66,0.11-13.47,20.93
	c0,0,5.75,6.76,23.26-17.62c0,0-14.64,14.05-5.9,18.26c8.74,4.21,20.06-12.91,15.56-14.53c-4.5-1.62-14.3,9.41-7.21,12.53
	s18.37-4.86,16.11-14.66"/>
<path class="st1" d="M110.01,72.37c0,0,11.65-6.67,12.27-3.72c0,0,9.14,1.77,3.07,21.47c0,0-7.43,16.2-7.26,19.07
	c0.17,2.87,15.42-2.44,15.91-9.19l8.73-19.65c0,0,2.88-6.89,7.5-7.56c4.62-0.68-4.33,24.41-4.33,24.41s-12.49,28.51-20.84,30.71
	c0,0-13.21,11.47-18.38,4c-5.17-7.47,28.09-19.7,32.35-24.4c4.26-4.71,15.74-8.45,17.46-14.45s-10.23,17.83-5.93,21.25
	c4.3,3.42,20.89-10,21.49-17.72c0.6-7.72-7.82,13.58-4.62,13.71c3.2,0.13,11.87-0.38,16.27-16.83s-11.83,22.55-1.27,20.57
	c10.57-1.97,11.51-8.03,7.99-18.99"/>
<path class="st1" d="M191.42,89.9c0,0-2.86-5.88-6.7-7.99"/>
</svg>
