<?xml version="1.0" encoding="utf-8"?>
<!-- Svg Vector Icons : http://www.onlinewebfonts.com/icon -->
<!DOCTYPE svg PUBLIC "-//W3C//DTD SVG 1.1//EN" "http://www.w3.org/Graphics/SVG/1.1/DTD/svg11.dtd">
<svg version="1.1" xmlns="http://www.w3.org/2000/svg" xmlns:xlink="http://www.w3.org/1999/xlink" x="0px" y="0px" viewBox="0 0 1000 1000" enable-background="new 0 0 1000 1000" xml:space="preserve">
<metadata> Svg Vector Icons : http://www.onlinewebfonts.com/icon </metadata>
<g><g transform="translate(0.000000,512.000000) scale(0.100000,-0.100000)"><path d="M1985.2,4988.4C1045.9,4843,275,4068.3,131.6,3123.3c-42.1-269.7-42.1-5736.9,0-6006.6C275-3834.1,1045.9-4605,1996.7-4748.4c151.1-24.9,640.8-28.7,2997.6-28.7c1865.1,0,2865.6,7.7,2965.1,21c969.9,130.1,1763.8,908.6,1909.1,1872.8c42.1,269.7,42.1,5736.9,0,6006.6C9725,4074.1,8954.1,4845,8003.3,4988.4C7752.7,5026.7,2230.1,5026.7,1985.2,4988.4z M8158.3,4602c681-193.2,1136.3-650.4,1321.9-1325.7l44-162.6V120v-2993.7l-53.6-189.4c-179.8-648.5-638.9-1107.6-1287.4-1287.4l-189.4-53.6H5000H2006.2l-162.6,44c-355.8,97.6-610.2,242.9-851.3,489.7c-237.2,239.1-394.1,522.2-482.1,864.6c-32.5,122.4-34.4,329-34.4,3125.8c0,2796.7,1.9,3003.3,34.4,3125.7c185.6,726.9,736.5,1249.2,1453.8,1379.2c111,21,728.8,24.9,3093.2,23l2955.5-3.8L8158.3,4602z"/><path d="M1958.4,303.6v-2536.6h267.8H2494v832.1v832.1h715.4c757.5,0,881.9,11.5,1103.8,93.7c143.5,55.5,323.3,172.2,426.6,279.3c220,231.5,350.1,663.8,369.2,1233.9c17.2,518.4-26.8,772.8-189.4,1109.5C4759,2478.6,4516,2687.2,4166,2790.5c-99.5,30.6-229.6,34.4-1159.2,40.2l-1048.3,7.6V303.6z M4003.4,2285.4c434.2-143.5,621.7-541.4,587.3-1256.8c-17.2-378.8-91.8-667.6-210.4-807.3c-74.6-88-248.7-197-378.8-239.1c-103.3-30.6-187.5-34.4-811.1-34.4H2494v1197.5v1197.5l694.4-7.7C3833.1,2327.5,3888.6,2323.7,4003.4,2285.4z"/><path d="M6597.3,1457.1c-281.2-53.6-506.9-176-650.4-355.8C5522.2,563.8,5684.8-59.8,6339.1-388.8c53.6-26.8,275.5-109,493.5-181.7c579.6-195.1,801.5-340.5,866.6-566.2c120.5-413.2-189.4-715.4-736.5-715.4c-264-1.9-491.6,74.6-650.4,212.3c-74.6,67-164.5,231.5-164.5,302.2v47.8l-252.5-15.3c-139.6-7.7-258.3-17.2-262.1-21c-5.7-3.8,1.9-65,15.3-137.7c72.7-394.1,392.1-705.9,853.2-830.2c221.9-59.3,734.6-59.3,952.6,0c225.7,61.2,394.1,158.8,537.5,309.9c216.2,231.5,304.2,495.4,262.1,801.5c-36.3,273.6-122.4,449.6-304.2,617.9c-181.7,170.2-319.5,237.2-922,445.7C6603,28.2,6365.9,167.8,6289.3,315.1c-111,214.2,9.6,495.4,260.2,606.4c260.2,114.8,682.9,97.6,945-36.3c63.1-32.5,114.8-55.5,116.7-53.6c1.9,3.8,38.3,103.3,80.3,221.9l78.4,216.2l-59.3,38.3c-89.9,55.5-237.2,107.1-401.7,139.6C7148.2,1482,6756.1,1485.8,6597.3,1457.1z"/></g></g>
</svg>